<?xml version="1.0" encoding="utf-8"?>
<!-- Generator: Adobe Illustrator 27.3.1, SVG Export Plug-In . SVG Version: 6.00 Build 0)  -->
<svg version="1.1" id="Text_File" xmlns="http://www.w3.org/2000/svg" xmlns:xlink="http://www.w3.org/1999/xlink" x="0px" y="0px"
	 width="47px" height="43.73px" viewBox="0 0 47 43.73" style="enable-background:new 0 0 47 43.73;" xml:space="preserve">
<style type="text/css">
	.st0{display:none;fill:#669966;}
	.st1{fill:#9999CC;}
	.st2{fill:#333366;}
</style>
<path id="bookmark" class="st0" d="M42.44,34.98c-0.01-9.79-0.01-24.48-0.01-34.28c0-0.22,0-0.45,0-0.67c-9.23,0-18.34,0-27.47,0
	c0,11.89,0,23.74,0,35.68c4.93,0,9.81,0,14.71,0c0.01,0.27,0.02,0.46,0.03,0.65c0.02,0.57-0.01,1.15,0.07,1.72
	c0.11,0.68,0.55,0.83,1.13,0.41c0.33-0.23,0.65-0.49,1.01-0.76c0.3,0.23,0.57,0.44,0.83,0.65c0.76,0.57,1.18,0.45,1.3-0.44
	c0.1-0.71,0.09-1.44,0.13-2.29c1.1,0,2.14,0.03,3.18-0.01c1.07-0.04,2.03-0.41,2.88-0.99C41.93,33.49,42.45,36.8,42.44,34.98z"/>
<path class="st1" d="M41.41,35.98h-26.2v-36h27v35.2C42.21,35.63,41.85,35.98,41.41,35.98z"/>
<path class="st2" d="M12.44,43.84c-1.55,0-3.1,0-4.65,0c-2.11,0-3.15-0.93-3.15-2.82c0-11.96-0.01-23.93,0-35.89
	c0-3,2.25-5.05,5.6-5.13c0.69-0.02,1.37,0,2.11,0c0,11.9,0,23.76,0,35.69c-1.65,0-3.28,0-4.95,0c0,1.91,0,3.76,0,5.69
	c1.66,0,3.32,0,4.98,0"/>
<path class="st2" d="M12.39,41.37c9.99,0,19.98,0,29.95,0c-0.38,0.66-0.73,1.2-1.01,1.61c-0.26,0.38-0.43,0.61-0.75,0.76
	c-0.52,0.24-1.09,0.08-1.21,0.08c-8.98,0-17.95,0.01-26.93,0.01"/>
<rect x="10.07" y="-0.02" class="st2" width="2.37" height="36"/>
<rect x="6.72" y="7.98" class="st2" width="4.27" height="28"/>
<path class="st2" d="M39.66,38.74c0,1.08,0,2.15,0,3.26c-1.66,0-3.32,0-4.98,0l-0.05,1.83c1.55,0,3.1,0,4.65,0
	c2.11,0,3.15-0.69,3.15-2.1c0-1,0-2,0-3c-0.14-0.38-0.57-0.68-1.1-0.74C40.64,37.91,39.88,38.22,39.66,38.74z"/>
</svg>
