<?xml version="1.0" encoding="utf-8"?>
<!-- Generator: Adobe Illustrator 27.3.1, SVG Export Plug-In . SVG Version: 6.00 Build 0)  -->
<svg version="1.1" id="Book" xmlns="http://www.w3.org/2000/svg" xmlns:xlink="http://www.w3.org/1999/xlink" x="0px" y="0px"
	 width="47px" height="44px" viewBox="0 0 47 44" style="enable-background:new 0 0 47 44;" xml:space="preserve">
<style type="text/css">
	.st0{fill:#CCCCFF;}
	.st1{fill:#9966CC;}
	.st2{fill:#9999FF;}
</style>
<g>
	<path class="st0" d="M0.5,36.52c0-6.95,0-13.89,0-20.84c0.01-0.04,0.03-0.09,0.04-0.13c0.14-0.91,1.03-1.68,2-1.68
		c3.63-0.01,7.26,0,10.89,0c0.67,0,1.33,0,2,0c5.32,0,10.63,0,15.95-0.01c1.22,0,2.18,0.95,2.17,2.07
		c-0.02,3.28-0.01,6.55-0.01,9.83c0,0.12,0.01,0.24,0.01,0.35c0,1.02-0.01,2.04-0.01,3.07c0,2.4,0,4.81,0,7.21
		c0,1-0.9,1.97-2.08,1.97c-4.46,0.01-8.93,0.01-13.39,0c-0.24,0-0.43,0.07-0.62,0.19c-1.1,0.7-2.2,1.4-3.29,2.1
		c-1.35,0.85-2.69,1.71-4.05,2.55c-0.31,0.19-0.6,0.43-0.98,0.57c0-0.12,0-0.22,0-0.31c0-1.62,0-3.24,0-4.85
		c0-0.19-0.06-0.24-0.25-0.23c-2.08,0.01-4.16,0-6.25,0.01c-0.54,0-0.99-0.19-1.4-0.51C0.8,37.51,0.59,37.05,0.5,36.52z
		 M17.01,24.76C17.01,24.76,17.01,24.76,17.01,24.76c3.52,0.01,7.03,0,10.55,0.01c0.19,0,0.25-0.04,0.24-0.24
		c-0.02-0.71-0.01-1.41,0-2.12c0.01-0.37,0.01-0.38-0.39-0.38c-3.77,0-7.55,0-11.32,0c-3.17,0-6.35,0-9.52,0
		c-0.33,0-0.33,0-0.33,0.31c0,0.73,0.01,1.45,0,2.18c0,0.2,0.06,0.24,0.27,0.24C10.01,24.75,13.51,24.76,17.01,24.76z M17,30.21
		C17,30.21,17,30.21,17,30.21c0.89-0.01,1.77-0.01,2.66-0.01c1.65,0,3.3,0,4.95,0c0.34,0,0.34,0,0.34-0.32c0-0.72-0.01-1.44,0-2.15
		c0-0.19-0.06-0.26-0.27-0.26c-5.11,0-10.23,0-15.34,0c-0.18,0-0.23,0.05-0.22,0.21c0.01,0.77,0.02,1.55,0,2.32
		c0,0.19,0.08,0.21,0.24,0.21C11.9,30.21,14.45,30.21,17,30.21z"/>
	<path class="st1" d="M33.56,26.11c0-0.12-0.01-0.24-0.01-0.35c0-3.28-0.02-6.55,0.01-9.83c0.01-1.12-0.95-2.07-2.17-2.07
		c-5.32,0-10.63,0-15.95,0.01c-0.67,0-1.33,0-2,0c0-2,0.01-3.99,0.01-5.99c0-1.87,0-3.74,0-5.61c0-0.49,0.18-0.9,0.49-1.28
		c0.36-0.43,0.86-0.65,1.42-0.75c9.78,0,19.57,0,29.35,0c0.38,0.12,0.75,0.25,1.06,0.5c0.39,0.32,0.59,0.75,0.74,1.2
		c0,6.99,0,13.99,0,20.98c-0.01,0.02-0.03,0.04-0.03,0.06c-0.09,1-1.12,1.79-2.18,1.76c-1.31-0.04-2.61-0.01-3.92-0.01
		c-0.34,0-0.33,0-0.33,0.3c0,1.04,0,2.08,0,3.12c0,0.67,0,1.34,0,2.04C37.85,28.83,35.71,27.47,33.56,26.11z"/>
	<path class="st2" d="M17.01,24.76c-3.5,0-7,0-10.5,0.01c-0.21,0-0.27-0.04-0.27-0.24c0.01-0.73,0-1.45,0-2.18
		c0-0.31,0-0.31,0.33-0.31c3.17,0,6.35,0,9.52,0c3.77,0,7.55,0,11.32,0c0.4,0,0.39,0.01,0.39,0.38c-0.01,0.71-0.02,1.41,0,2.12
		c0,0.2-0.05,0.24-0.24,0.24C24.05,24.76,20.53,24.76,17.01,24.76C17.01,24.76,17.01,24.76,17.01,24.76z"/>
	<path class="st2" d="M17,30.21c-2.55,0-5.09,0-7.64,0c-0.16,0-0.24-0.02-0.24-0.21c0.02-0.77,0.01-1.54,0-2.32
		c0-0.16,0.05-0.21,0.22-0.21c5.11,0,10.23,0,15.34,0c0.21,0,0.27,0.06,0.27,0.26c-0.01,0.72,0,1.44,0,2.15c0,0.32,0,0.32-0.34,0.32
		c-1.65,0-3.3,0-4.95,0C18.77,30.21,17.88,30.21,17,30.21C17,30.21,17,30.21,17,30.21z"/>
</g>
</svg>
