<?xml version="1.0" encoding="utf-8"?>
<!-- Generator: Adobe Illustrator 27.3.1, SVG Export Plug-In . SVG Version: 6.00 Build 0)  -->
<svg version="1.1" id="Text_File" xmlns="http://www.w3.org/2000/svg" xmlns:xlink="http://www.w3.org/1999/xlink" x="0px" y="0px"
	 width="47px" height="44px" viewBox="0 0 47 44" style="enable-background:new 0 0 47 44;" xml:space="preserve">
<style type="text/css">
	.st0{fill:#FFD967;}
	.st1{fill:#FFAD4A;}
</style>
<g>
	<path class="st0" d="M2.18,36.73c0-0.1,0-0.19,0-0.29c0-7.55,0-15.09,0-22.64c0-0.32,0.01-0.65,0.01-0.97
		c0.11,0,0.22,0.01,0.33,0.01c4.51,0,9.02,0,13.53,0c0.58,0,1.16,0,1.74,0c0.77-0.01,1.44-0.29,1.99-0.83
		c0.69-0.67,1.36-1.35,2.04-2.03c0.05-0.05,0.13-0.1,0.13-0.19c0.2,0.05,0.41,0.02,0.62,0.02c1.41,0,2.82,0,4.23,0
		c5.49,0,10.99,0,16.48,0c0.76,0,1.38,0.53,1.53,1.22c0.02,0.09,0.02,0.19,0.02,0.28c0,8.41,0,16.82,0,25.24
		c0,0.06,0,0.13-0.01,0.19c-0.07,0-0.14,0-0.21,0c-14.05,0-28.1,0-42.15,0C2.36,36.73,2.27,36.73,2.18,36.73z"/>
	<path class="st1" d="M21.93,9.79c0,0.09-0.07,0.14-0.13,0.19c-0.68,0.68-1.35,1.36-2.04,2.03c-0.55,0.54-1.21,0.82-1.99,0.83
		c-0.58,0.01-1.16,0-1.74,0c-4.51,0-9.02,0-13.53,0c-0.11,0-0.22-0.01-0.33-0.01c0-0.77-0.01-1.54-0.01-2.31c0-0.7,0.01-1.4,0-2.09
		c-0.01-0.45,0.11-0.86,0.4-1.18C2.82,7,3.13,6.83,3.5,6.79c0.16-0.02,0.32-0.02,0.47-0.02c4.48,0,8.96,0,13.44,0
		c0.32,0,0.64,0.01,0.94,0.08c0.49,0.13,0.96,0.32,1.33,0.68C20.44,8.28,21.18,9.03,21.93,9.79z"/>
	<path class="st1" d="M2.18,36.73c0.09,0,0.17-0.01,0.26-0.01c14.05,0,28.1,0,42.15,0c0.07,0,0.14,0,0.21,0
		c-0.04,0.34-0.19,0.48-0.51,0.5c-0.08,0-0.16,0-0.24,0c-13.72,0-27.44,0-41.15,0c-0.1,0-0.21-0.01-0.31-0.01
		c-0.02,0-0.03-0.01-0.05-0.01C2.33,37.13,2.19,36.99,2.18,36.73z"/>
	<path class="st0" d="M2.56,37.21c0.02,0,0.03,0.01,0.05,0.01C2.58,37.24,2.57,37.23,2.56,37.21z"/>
</g>
</svg>
