<?xml version="1.0" encoding="utf-8"?>
<!-- Generator: Adobe Illustrator 27.4.0, SVG Export Plug-In . SVG Version: 6.00 Build 0)  -->
<svg version="1.1" id="JPEG" xmlns="http://www.w3.org/2000/svg" xmlns:xlink="http://www.w3.org/1999/xlink" x="0px" y="0px"
	 width="47px" height="44px" viewBox="0 0 47 44" style="enable-background:new 0 0 47 44;" xml:space="preserve">
<style type="text/css">
	.st0{fill:#FFFFFF;}
	.st1{fill:#3AB54B;}
	.st2{fill:none;}
	.st3{font-family:'Menlo-Bold';}
	.st4{font-size:10px;}
	.st5{fill:#62C46F;}
	.st6{fill:none;stroke:#3AB54B;stroke-width:2;stroke-miterlimit:10;}
	.st7{fill:#EED265;}
</style>
<polygon id="White_File_Content" class="st0" points="31.31,1 7.04,1 7.04,43 39.82,43 39.82,10.77 "/>
<rect id="JPEG_Text_Background" x="7.21" y="32.12" class="st1" width="33.29" height="10.39"/>
<rect x="14.23" y="33.66" class="st2" width="18.54" height="9.46"/>
<text transform="matrix(1 0 0 1 14.2297 41.2565)" class="st0 st3 st4">JPG</text>
<g id="Mountains">
	<polygon class="st5" points="20.1,20.12 7.7,32.12 32.5,32.12 	"/>
	<path class="st5" d="M32.85,15.12l-14.65,17h21.3c0-3.09,0-6.19,0-9.28L32.85,15.12z"/>
</g>
<path id="File_Outline" class="st6" d="M32.35,1H8.41c-1,0-1.8,0.81-1.8,1.8V41.2c0,1,0.81,1.8,1.8,1.8h30.18c1,0,1.8-0.81,1.8-1.8
	V10.46L32.35,1z"/>
<circle class="st7" cx="16" cy="10.62" r="3.5"/>
</svg>
