<?xml version="1.0" encoding="utf-8"?>
<!-- Generator: Adobe Illustrator 27.4.1, SVG Export Plug-In . SVG Version: 6.00 Build 0)  -->
<svg version="1.1" id="Magnifying_Glass" xmlns="http://www.w3.org/2000/svg" xmlns:xlink="http://www.w3.org/1999/xlink" x="0px"
	 y="0px" width="47px" height="44px" viewBox="0 0 47 44" style="enable-background:new 0 0 47 44;" xml:space="preserve">
<style type="text/css">
	.st0{fill:#9999CC;}
	.st1{fill:#E9E9F4;}
</style>
<g>
	<path class="st0" d="M25.12,0.4c0.29-0.05,0.71-0.05,1.12-0.04c2.05,0.05,4.01,0.48,5.88,1.32c1.91,0.86,3.57,2.05,4.98,3.59
		c1.58,1.73,2.72,3.72,3.38,5.98c0.25,0.86,0.44,1.72,0.53,2.61c0.06,0.64,0.12,1.29,0.1,1.93c-0.05,1.62-0.3,3.2-0.84,4.74
		c-0.62,1.78-1.54,3.38-2.76,4.82c-1.73,2.05-3.88,3.52-6.38,4.46c-0.81,0.31-1.66,0.5-2.51,0.67c-0.49,0.1-0.97,0.16-1.47,0.21
		c-0.61,0.06-1.21-0.02-1.82,0.04c-0.33,0.03-0.64-0.12-0.96-0.02c-0.14-0.14-0.34-0.08-0.48-0.09c-0.39-0.03-0.74-0.18-1.11-0.24
		c-0.73-0.12-1.43-0.35-2.12-0.61c-0.13-0.05-0.19-0.04-0.27,0.08c-0.62,0.93-1.25,1.85-1.88,2.77c-0.64,0.94-1.27,1.88-1.9,2.82
		c-0.59,0.88-1.19,1.75-1.78,2.63c-0.61,0.91-1.23,1.81-1.84,2.72c-0.38,0.57-0.78,1.13-1.15,1.71c-0.27,0.43-0.68,0.6-1.13,0.61
		c-0.93,0.02-1.8-0.24-2.6-0.73c-0.49-0.3-0.98-0.61-1.38-1.03C6.4,41,6.11,40.61,5.98,40.15c-0.08-0.26,0-0.56,0.18-0.81
		c1.09-1.47,2.11-2.99,3.16-4.49c1.93-2.76,3.86-5.51,5.8-8.26c0.13-0.18,0.13-0.28-0.03-0.45c-1.17-1.19-2.1-2.54-2.84-4.04
		c-0.45-0.92-0.79-1.88-1.05-2.86c-0.16-0.61-0.28-1.24-0.35-1.87c-0.09-0.86-0.12-1.73-0.08-2.6c0.05-1.02,0.19-2.02,0.45-3
		c0.52-1.98,1.39-3.8,2.63-5.43c1.57-2.05,3.54-3.62,5.89-4.68c1-0.45,2.03-0.79,3.11-1C23.56,0.54,24.27,0.42,25.12,0.4z
		 M25.8,2.14c-0.41,0-0.95,0.03-1.49,0.1c-0.93,0.11-1.85,0.32-2.74,0.64c-1.17,0.41-2.28,0.95-3.29,1.67
		c-0.91,0.65-1.76,1.37-2.49,2.23c-1.42,1.68-2.4,3.57-2.91,5.71c-0.15,0.63-0.26,1.26-0.31,1.9c-0.05,0.73-0.07,1.46-0.01,2.19
		c0.03,0.34,0.08,0.69,0.11,1.03c0.02,0.28,0.12,0.56,0.18,0.84c0.26,1.22,0.68,2.39,1.29,3.48c0.73,1.3,1.6,2.48,2.71,3.48
		c0.92,0.83,1.93,1.53,3.02,2.11c0.54,0.29,1.12,0.49,1.69,0.7c0.69,0.25,1.42,0.42,2.14,0.56c0.7,0.14,1.42,0.17,2.14,0.17
		c0.79,0,1.57-0.06,2.35-0.19c1.71-0.29,3.3-0.91,4.77-1.81c1.3-0.79,2.41-1.8,3.38-2.97c0.89-1.08,1.55-2.29,2.06-3.59
		c0.32-0.8,0.53-1.63,0.68-2.48c0.13-0.71,0.21-1.42,0.23-2.14c0.03-0.78-0.09-1.56-0.19-2.34c-0.12-0.89-0.35-1.75-0.67-2.59
		c-0.89-2.39-2.36-4.36-4.38-5.91C31.69,3.08,28.96,2.18,25.8,2.14z"/>
	<path class="st1" d="M30.68,12.85c-1.3,0.01-2.56-0.14-3.81-0.37c-1.36-0.25-2.68-0.63-3.95-1.17c-0.99-0.42-1.94-0.93-2.77-1.63
		c-0.5-0.43-0.93-0.91-1.19-1.53c-0.36-0.9-0.04-1.7,0.65-2.27c0.85-0.71,1.88-1.02,2.94-1.23c0.61-0.12,1.23-0.17,1.85-0.23
		c0.65-0.06,1.29-0.05,1.93-0.02c0.76,0.03,1.52,0.11,2.27,0.23c1.23,0.19,2.43,0.47,3.61,0.88c1.14,0.39,2.24,0.88,3.23,1.57
		c0.67,0.47,1.28,1.01,1.67,1.75c0.4,0.78,0.34,1.58-0.27,2.24c-0.64,0.7-1.49,1.05-2.37,1.3c-0.88,0.26-1.77,0.38-2.69,0.44
		C31.42,12.83,31.03,12.82,30.68,12.85z"/>
</g>
</svg>
