<?xml version="1.0" encoding="utf-8"?>
<!-- Generator: Adobe Illustrator 27.4.0, SVG Export Plug-In . SVG Version: 6.00 Build 0)  -->
<svg version="1.1" id="Memo" xmlns="http://www.w3.org/2000/svg" xmlns:xlink="http://www.w3.org/1999/xlink" x="0px" y="0px"
	 width="47px" height="44px" viewBox="0 0 47 44" style="enable-background:new 0 0 47 44;" xml:space="preserve">
<style type="text/css">
	.st0{fill:#FFFFFF;}
	.st1{fill:none;stroke:#F4CF34;stroke-width:2;stroke-miterlimit:10;}
	.st2{fill:#F4CF34;stroke:#FFFFFF;stroke-miterlimit:10;}
</style>
<g id="Text_File_Lines">
	<polygon id="White_File_Content" class="st0" points="31.31,1 7.04,1 7.04,43 39.82,43 39.82,10.77 	"/>
	<line class="st1" x1="11.13" y1="28.25" x2="35.71" y2="28.25"/>
	<line class="st1" x1="11.13" y1="34.54" x2="35.71" y2="34.54"/>
	<path id="File_Outline" class="st1" d="M32.27,1H8.33c-1,0-1.8,0.81-1.8,1.8V41.2c0,1,0.81,1.8,1.8,1.8h30.18c1,0,1.8-0.81,1.8-1.8
		V10.46L32.27,1z"/>
	<line class="st1" x1="11.13" y1="9.37" x2="31.5" y2="9.37"/>
	<line class="st1" x1="11.13" y1="15.66" x2="35.71" y2="15.66"/>
	<line class="st1" x1="11.13" y1="21.95" x2="35.71" y2="21.95"/>
</g>
<g id="Pencil">
	<path class="st2" d="M42.74,21.6c0.07,0.23-0.01,0.4-0.08,0.57c-0.29,0.76-0.59,1.52-0.89,2.28c-1.17,3.01-2.33,6.02-3.49,9.03
		c-0.11,0.28-0.22,0.56-0.33,0.84c-0.18,0.45-0.35,0.52-0.8,0.35c-1.02-0.39-2.05-0.8-3.07-1.19c-0.59-0.23-1.19-0.46-1.79-0.69
		c-0.51-0.2-0.59-0.38-0.39-0.89c1.54-3.96,3.08-7.92,4.61-11.89c0.04-0.1,0.08-0.2,0.12-0.3c0.15-0.36,0.37-0.46,0.73-0.32
		c0.7,0.27,1.39,0.54,2.09,0.81c0.98,0.38,1.96,0.76,2.94,1.15C42.53,21.41,42.63,21.52,42.74,21.6z"/>
	<path class="st2" d="M39.19,13.42c0.17,0.02,0.31,0.01,0.42,0.05c1.68,0.65,3.36,1.3,5.03,1.96c0.39,0.15,0.48,0.35,0.34,0.74
		c-0.47,1.25-0.96,2.5-1.45,3.75c-0.17,0.42-0.35,0.48-0.81,0.31c-0.87-0.33-1.73-0.67-2.59-1c-0.75-0.29-1.5-0.58-2.25-0.88
		c-0.08-0.03-0.17-0.07-0.24-0.11c-0.21-0.13-0.27-0.26-0.21-0.5c0.03-0.13,0.08-0.26,0.12-0.38c0.46-1.18,0.91-2.36,1.37-3.53
		C38.98,13.68,39.09,13.56,39.19,13.42z"/>
	<path class="st2" d="M32.1,40.81c-0.16,0.07-0.25,0.02-0.27-0.17c-0.04-0.32-0.07-0.63-0.1-0.95c-0.17-1.83-0.35-3.66-0.52-5.5
		c-0.04-0.43,0.04-0.49,0.43-0.34c1.74,0.68,3.47,1.35,5.21,2.03c0.37,0.14,0.39,0.27,0.09,0.55c-1.27,1.16-2.55,2.32-3.83,3.48
		c-0.3,0.27-0.6,0.54-0.89,0.81C32.17,40.75,32.13,40.79,32.1,40.81z"/>
	
		<rect x="36.31" y="18.59" transform="matrix(0.9325 0.3612 -0.3612 0.9325 9.8375 -13.1925)" class="st0" width="7.81" height="2.27"/>
	
		<rect x="30.85" y="33.09" transform="matrix(0.9325 0.3612 -0.3612 0.9325 14.6733 -10.127)" class="st0" width="7.16" height="2.21"/>
</g>
</svg>
