<?xml version="1.0" encoding="utf-8"?>
<!-- Generator: Adobe Illustrator 27.3.1, SVG Export Plug-In . SVG Version: 6.00 Build 0)  -->
<svg version="1.1" id="Terminal" xmlns="http://www.w3.org/2000/svg" xmlns:xlink="http://www.w3.org/1999/xlink" x="0px" y="0px"
	 width="47px" height="44px" viewBox="0 0 47 44" style="enable-background:new 0 0 47 44;" xml:space="preserve">
<style type="text/css">
	.st0{fill:#282C34;stroke:#FFFFFF;stroke-width:3;stroke-miterlimit:10;}
	.st1{fill:#FFFFFF;}
</style>
<g>
	<path class="st0" d="M42.6,37.7H4.4c-1.2,0-2.1-1-2.1-2.1v-27c0-1.2,1-2.1,2.1-2.1h38.1c1.2,0,2.1,0.9,2.1,2.1v27
		C44.7,36.7,43.7,37.7,42.6,37.7z"/>
	<g>
		<path class="st1" d="M13.2,28.8c-1-1-2-2-3.1-3.1c1.6-1.6,3.1-3.1,4.7-4.7c-1.6-1.6-3.2-3.2-4.8-4.7c1.1-1.1,2.1-2.1,3.1-3.1
			c2.6,2.6,5.2,5.2,7.8,7.8C18.5,23.5,15.9,26.1,13.2,28.8z"/>
		<path class="st1" d="M36.9,26.5c0,1.5,0,2.9,0,4.4c-4.5,0-8.9,0-13.4,0c0-1.5,0-2.9,0-4.4C27.9,26.5,32.4,26.5,36.9,26.5z"/>
	</g>
</g>
</svg>
