<?xml version="1.0" encoding="utf-8"?>
<!-- Generator: Adobe Illustrator 27.3.1, SVG Export Plug-In . SVG Version: 6.00 Build 0)  -->
<svg version="1.1" id="Terminal" xmlns="http://www.w3.org/2000/svg" xmlns:xlink="http://www.w3.org/1999/xlink" x="0px" y="0px"
	 width="47px" height="44px" viewBox="0 0 47 44" style="enable-background:new 0 0 47 44;" xml:space="preserve">
<style type="text/css">
	.st0{fill:#FFFFFF;}
	.st1{fill:#333333;}
</style>
<g>
	<path class="st0" d="M41.65,40.94H5.35c-2.75,0-5-2.25-5-5V8.05c0-2.75,2.25-5,5-5h36.31c2.75,0,5,2.25,5,5v27.89
		C46.65,38.69,44.4,40.94,41.65,40.94z"/>
	<path class="st1" d="M4.07,36.56c0-9.72,0-19.4,0-29.11c12.95,0,25.88,0,38.85,0c0,9.69,0,19.38,0,29.11
		C29.99,36.56,17.06,36.56,4.07,36.56z M12.4,29.45c2.86-2.85,5.71-5.69,8.5-8.47c-2.82-2.82-5.66-5.66-8.47-8.47
		c-1.08,1.08-2.21,2.21-3.4,3.4c1.67,1.66,3.38,3.35,5.15,5.11c-1.72,1.72-3.42,3.42-5.12,5.11C10.19,27.25,11.31,28.36,12.4,29.45z
		 M38.08,26.92c-4.88,0-9.71,0-14.54,0c0,1.61,0,3.18,0,4.75c4.86,0,9.69,0,14.54,0C38.08,30.07,38.08,28.52,38.08,26.92z"/>
	<path class="st0" d="M12.39,29.38c-1.09-1.08-2.21-2.19-3.34-3.32c1.7-1.7,3.4-3.39,5.12-5.11c-1.77-1.76-3.48-3.45-5.15-5.11
		c1.19-1.19,2.32-2.32,3.4-3.4c2.81,2.81,5.65,5.65,8.47,8.47C18.1,23.7,15.25,26.53,12.39,29.38z"/>
	<path class="st0" d="M38.08,26.86c0,1.6,0,3.15,0,4.75c-4.85,0-9.67,0-14.54,0c0-1.57,0-3.14,0-4.75
		C28.37,26.86,33.2,26.86,38.08,26.86z"/>
</g>
</svg>
