<?xml version="1.0" encoding="UTF-8"?><svg id="Text_File" xmlns="http://www.w3.org/2000/svg" width="34.98" height="43" viewBox="0 0 34.98 43"><defs><style>.cls-1,.cls-2{fill:#fff;}.cls-3{fill:#61dafb;}.cls-4{fill:none;stroke:#61dafb;stroke-miterlimit:10;stroke-width:2px;}.cls-2{font-family:Menlo-Bold, Menlo;font-size:8px;font-weight:700;}</style></defs><polygon id="White_File_Content" class="cls-1" points="25.11 1 1.42 1 1.42 42 33.42 42 33.42 10.54 25.11 1"/><line class="cls-4" x1="5.49" y1="20" x2="29.49" y2="20"/><line class="cls-4" x1="5.49" y1="25" x2="29.49" y2="25"/><line class="cls-4" x1="5.49" y1="30" x2="29.49" y2="30"/><line class="cls-4" x1="5.49" y1="35" x2="29.49" y2="35"/><path id="File_Outline" class="cls-4" d="m26.13,1H2.76c-.97,0-1.76.79-1.76,1.76v37.48c0,.97.79,1.76,1.76,1.76h29.46c.97,0,1.76-.79,1.76-1.76V10.23L26.13,1Z"/><g><rect class="cls-3" x="5.49" y="6" width="18" height="9"/><text class="cls-2" transform="translate(7.2 13.74)"><tspan x="0" y="0">TXT</tspan></text></g></svg>