<?xml version="1.0" encoding="UTF-8"?><svg id="Trash_Can" xmlns="http://www.w3.org/2000/svg" width="47" height="43.73" viewBox="0 0 47 43.73"><defs><style>.cls-1{fill:#fff;}.cls-2{fill:#b0ddea;}.cls-3{fill:#adadad;}.cls-4{fill:#61dafb;}</style></defs><polygon id="White_Can" class="cls-1" points="38.46 43.25 8.59 43.25 3.31 1.99 43.64 1.99 38.46 43.25"/><polygon id="Trash_Can_Side_Right" class="cls-2" points="37.09 39.29 40.39 39.3 45.71 3.45 42.41 3.45 37.09 39.29"/><polygon id="Trash_Can_Side_Left" class="cls-2" points="9.97 39.29 6.67 39.3 1.35 3.45 4.65 3.45 9.97 39.29"/><g id="Trash_Bottom_Rim"><path id="Trash_Bottom_Right" class="cls-3" d="m23.41,39.05h14.63c1.29,0,2.34,1.05,2.34,2.34h0c0,1.29-1.05,2.34-2.34,2.34h-16.97v-2.34c0-1.29,1.05-2.34,2.34-2.34Z" transform="translate(61.44 82.78) rotate(180)"/><path id="Trash_Bottom_Left" class="cls-3" d="m6.62,39.05h16.83c1.29,0,2.34,1.05,2.34,2.34h0c0,1.29-1.05,2.34-2.34,2.34h-14.49c-1.29,0-2.34-1.05-2.34-2.34v-2.34h0Z"/></g><g id="Recycle_Symbol"><path class="cls-4" d="m14.56,19.2c.59,0,1.15,0,1.71,0,.74,0,1.48,0,2.22,0,.18,0,.26.05.34.23.25.56.57,1.09.82,1.66.23.53.44,1.06.69,1.57.03.07.06.13,0,.2-.08.07-.14,0-.2-.04-.13-.08-.25-.16-.36-.25-.17-.15-.31-.17-.42.06-.3.6-.7,1.14-1.06,1.71-.14.21.03.19.16.19.7,0,1.4,0,2.1,0,.51,0,1.02,0,1.52,0,.19,0,.29.04.28.26,0,1.41,0,2.82,0,4.22,0,.21-.07.3-.29.3-1.03,0-2.06.04-3.08-.02-.86-.05-1.51-.49-2-1.23-.46-.7-.83-1.45-1.3-2.14-.5-.71-.81-1.54-1.33-2.24-.29-.39-.34-.79-.31-1.25.01-.16.08-.29.16-.43.4-.65.78-1.31,1.17-1.97.1-.16-.03-.21-.13-.3-.21-.17-.52-.23-.68-.55Z"/><path class="cls-4" d="m23.56,18.23c.26-.16.51-.32.77-.45.12-.06.18-.11.1-.23-.36-.55-.52-1.19-.86-1.75-.13-.21-.2-.23-.33,0-.54.89-1.09,1.77-1.59,2.68-.1.17-.21.34-.33.5-.07.09-.17.06-.26,0-.46-.27-.91-.54-1.37-.8-.56-.31-1.08-.69-1.67-.96-.26-.11-.47-.35-.72-.51-.12-.07-.04-.22.02-.31.28-.49.54-1,.86-1.47.17-.25.3-.53.44-.8.42-.77,1.04-1.28,1.89-1.49.22-.05.46,0,.69,0,1.73,0,3.45,0,5.18.01.49,0,.84.17,1.08.65.32.64.73,1.23,1.09,1.85.08.14.12.19.28.07.18-.13.41-.22.61-.33.05-.02.1-.06.14,0,.02.03.02.09,0,.12-.37.74-.55,1.56-.94,2.3-.13.24-.29.48-.33.77-.02.12-.08.21-.23.21-1.49,0-2.99,0-4.48-.02,0,0-.01-.01-.06-.07Z"/><path class="cls-4" d="m26.47,30.34c-.14-.04-.23-.08-.28-.17-.44-.89-.98-1.72-1.44-2.6,0-.02-.02-.04-.03-.05-.46-.43-.31-.81,0-1.28.55-.83,1.02-1.72,1.53-2.59.04-.06.04-.19.16-.17.12.03.06.14.07.22.03.27-.12.62.07.79.17.15.51.04.77.04.51,0,1.02,0,1.52,0,.25,0,.24-.11.13-.26-.26-.37-.54-.72-.74-1.13-.32-.64-.73-1.23-1.13-1.82-.11-.16,0-.22.09-.27,1.19-.77,2.4-1.53,3.59-2.3.17-.11.25-.1.37.09.39.64.78,1.29,1.14,1.95.05.08.09.17.16.23.19.18.25.41.35.65.33.82.12,1.56-.24,2.3-.35.72-.69,1.44-1.05,2.15-.42.82-.79,1.67-1.25,2.47-.25.44-.64.61-1.12.65-.78.06-1.56.04-2.35.04-.24,0-.35.07-.34.33.02.23,0,.46,0,.72Z"/></g><g id="Trash_Top_Rim"><path id="Trash_Top_Right" class="cls-3" d="m21.42,3.45h24.65c.21,0,.4-.21.47-.52l.43-1.88C47.09.54,46.84,0,46.5,0h-25.08c-.28,0-.5.35-.5.78v1.88c0,.43.22.78.5.78Z"/><path id="Trash_Top_Left" class="cls-3" d="m25.58,3.45H.93c-.21,0-.4-.21-.47-.52L.03,1.05C-.09.54.16,0,.5,0h25.08c.28,0,.5.35.5.78v1.88c0,.43-.22.78-.5.78Z"/></g></svg>