<?xml version="1.0" encoding="utf-8"?>
<!-- Generator: Adobe Illustrator 27.4.1, SVG Export Plug-In . SVG Version: 6.00 Build 0)  -->
<svg version="1.1" id="Text_File" xmlns="http://www.w3.org/2000/svg" xmlns:xlink="http://www.w3.org/1999/xlink" x="0px" y="0px"
	 width="47px" height="44px" viewBox="0 0 47 44" style="enable-background:new 0 0 47 44;" xml:space="preserve">
<style type="text/css">
	.st0{fill:#FFD967;}
	.st1{fill:#FFAD4A;}
</style>
<g>
	<path class="st0" d="M2.2,36.7c0-0.1,0-0.2,0-0.3c0-7.5,0-15.1,0-22.6c0-0.3,0-0.6,0-1c0.1,0,0.2,0,0.3,0c4.5,0,9,0,13.5,0
		c0.6,0,1.2,0,1.7,0c0.8,0,1.4-0.3,2-0.8c0.7-0.7,1.4-1.4,2-2c0-0.1,0.1-0.1,0.1-0.2c0.2,0.1,0.4,0,0.6,0c1.4,0,2.8,0,4.2,0
		c5.5,0,11,0,16.5,0c0.8,0,1.4,0.5,1.5,1.2c0,0.1,0,0.2,0,0.3c0,8.4,0,16.8,0,25.2c0,0.1,0,0.1,0,0.2c-0.1,0-0.1,0-0.2,0
		c-14,0-28.1,0-42.2,0C2.4,36.7,2.3,36.7,2.2,36.7z"/>
	<path class="st1" d="M21.9,9.8c0,0.1-0.1,0.1-0.1,0.2c-0.7,0.7-1.4,1.4-2,2c-0.5,0.5-1.2,0.8-2,0.8c-0.6,0-1.2,0-1.7,0
		c-4.5,0-9,0-13.5,0c-0.1,0-0.2,0-0.3,0c0-0.8,0-1.5,0-2.3c0-0.7,0-1.4,0-2.1c0-0.4,0.1-0.9,0.4-1.2C2.8,7,3.1,6.8,3.5,6.8
		c0.2,0,0.3,0,0.5,0c4.5,0,9,0,13.4,0c0.3,0,0.6,0,0.9,0.1c0.5,0.1,1,0.3,1.3,0.7C20.4,8.3,21.2,9,21.9,9.8z"/>
	<path class="st1" d="M2.2,36.7c0.1,0,0.2,0,0.3,0c14,0,28.1,0,42.2,0c0.1,0,0.1,0,0.2,0c0,0.3-0.2,0.5-0.5,0.5c-0.1,0-0.2,0-0.2,0
		c-13.7,0-27.4,0-41.2,0c-0.1,0-0.2,0-0.3,0c0,0,0,0,0,0C2.3,37.1,2.2,37,2.2,36.7z"/>
	<path class="st0" d="M2.6,37.2C2.6,37.2,2.6,37.2,2.6,37.2C2.6,37.2,2.6,37.2,2.6,37.2z"/>
</g>
</svg>
