<?xml version="1.0" encoding="UTF-8"?><svg id="Text_File" xmlns="http://www.w3.org/2000/svg" width="42.64" height="30.47" viewBox="0 0 42.64 30.47"><defs><style>.cls-1{fill:#ffd967;}.cls-2{fill:#ffad4a;}</style></defs><path class="cls-1" d="m0,29.97c0-.1,0-.19,0-.29C0,22.13,0,14.59,0,7.04c0-.32,0-.65,0-.97.11,0,.22,0,.33,0,4.51,0,9.02,0,13.53,0,.58,0,1.16,0,1.74,0,.77,0,1.44-.29,1.99-.83.69-.67,1.36-1.35,2.04-2.03.05-.05.13-.1.13-.19.2.05.41.02.62.02,1.41,0,2.82,0,4.23,0,5.49,0,10.99,0,16.48,0,.76,0,1.38.53,1.53,1.22.02.09.02.19.02.28,0,8.41,0,16.82,0,25.24,0,.06,0,.13,0,.19-.07,0-.14,0-.21,0-14.05,0-28.1,0-42.15,0-.09,0-.17,0-.26,0Z"/><path class="cls-2" d="m19.75,3.02c0,.09-.07.14-.13.19-.68.68-1.35,1.36-2.04,2.03-.55.54-1.21.82-1.99.83-.58,0-1.16,0-1.74,0-4.51,0-9.02,0-13.53,0-.11,0-.22,0-.33,0,0-.77,0-1.54,0-2.31,0-.7,0-1.4,0-2.09,0-.45.11-.86.4-1.18C.64.23.96.06,1.32.02,1.47,0,1.63,0,1.79,0,6.27,0,10.75,0,15.23,0c.32,0,.64,0,.94.08.49.13.96.32,1.33.68.76.75,1.5,1.5,2.25,2.25Z"/><path class="cls-2" d="m0,29.97c.09,0,.17,0,.26,0,14.05,0,28.1,0,42.15,0,.07,0,.14,0,.21,0-.04.34-.19.48-.51.5-.08,0-.16,0-.24,0-13.72,0-27.44,0-41.15,0-.1,0-.21,0-.31-.01-.02,0-.03,0-.05-.01-.23-.08-.37-.22-.37-.48Z"/><path class="cls-1" d="m.38,30.44s.03,0,.05.01c-.02.02-.03,0-.05-.01Z"/></svg>