<?xml version="1.0" encoding="utf-8"?>
<!-- Generator: Adobe Illustrator 27.3.1, SVG Export Plug-In . SVG Version: 6.00 Build 0)  -->
<svg version="1.1" xmlns="http://www.w3.org/2000/svg" xmlns:xlink="http://www.w3.org/1999/xlink" x="0px" y="0px" width="47px"
	 height="43.73px" viewBox="0 0 47 43.73" style="enable-background:new 0 0 47 43.73;" xml:space="preserve">
<style type="text/css">
	.st0{fill:#66CCFF;}
	.st1{fill:#009966;}
	.st2{fill:#CCCCCC;}
</style>
<g id="Earth">
	<g>
		<path class="st0" d="M5.14,21.49c1.84,0.22,2.79,0.22,2.85,0c0.06-0.23-0.89-0.7-2.85-1.42c-0.61,0.02-1.21,0.04-1.82,0.07
			c-0.16-0.05-0.38-0.06-0.69-0.06c0,0.09-0.02,0.18-0.02,0.27c0,0.39,0.01,0.77,0.03,1.15c0.58,0.06,1.05,0.09,1.07,0
			c0.01-0.06-0.2-0.14-0.18-0.19C3.55,21.25,3.94,21.27,5.14,21.49z"/>
		<path class="st0" d="M4.19,20.5c-0.75-0.6-1.19-0.7-1.3-0.29C2.77,20.65,3,21.64,3.6,23.21c0.29,0.02,0.57,0.04,0.86,0.06
			c0.05,0.1,0.15,0.15,0.29,0.19c0.04-0.17,0.08-0.34,0.12-0.51c0.16-0.73,0.32-1.46,0.47-2.19C5.19,20.89,5.02,21,4.85,21.02
			C4.51,21.07,4.31,20.76,4.19,20.5z"/>
		<path class="st0" d="M2.63,20.07c0.31,0,0.54,0.02,0.69,0.06c0.07-2.41,2.7-7.86,3.24-8.6c-0.4,0-1.83,1.42-2.43,1.42
			C3.22,15.18,2.68,17.57,2.63,20.07z"/>
		<path class="st0" d="M27.91,0.77c-1.6-0.4-3.28-0.63-5.02-0.62c-2.22,0.01-4.36,0.39-6.37,1.08v0.35c0,0.12-1.42,1.29-1.42,1.42
			c2.97-1.04,7.44-2.44,10.58-1.97c0.85,0.12,1.68,0.32,2.52,0.5c0.04,0.01,0.08,0.03,0.12,0.05c0.11,0,0.2-0.01,0.28-0.01
			C28.07,1.52,27.94,1.35,27.91,0.77z"/>
		<path class="st1" d="M16.52,1.22C10.92,3.15,6.36,7.49,4.13,12.96c0.6,0,1.83-0.66,2.06-0.78c0.51-0.26,0.95-0.68,1.38-1.07
			c0.76-0.7,1.63-1.07,2.66-1.11c0.3-0.01,0.6-0.06,0.89-0.12c0.43-0.1,0.74-0.34,0.84-0.81c0.1-0.49,0.37-0.77,0.92-0.87
			c1.03-0.19,2.3-1.77,2.3-2.77c0-0.53-0.25-0.72-0.72-0.47c-0.39,0.21-0.72,0.52-1.07,0.78c-0.23,0.17-0.42,0.41-0.68,0.51
			c-0.22,0.09-0.59,0.13-0.73,0c-0.17-0.15-0.3-0.55-0.22-0.75c0.14-0.34,0.39-0.72,0.7-0.89c0.52-0.29,1.11-0.44,1.69-0.62
			c0.42-0.13,0.76-0.3,0.87-0.77c0.03-0.12,0.17-0.22,0.27-0.31c0.23-0.19,0.61-0.25,0.57-0.68c0-0.05,0.16-0.13,0.26-0.16
			c0.13-0.05,0.39-0.39,0.39-0.51V1.22z"/>
		<path class="st1" d="M28.59,1.56c-0.09,0.01-0.17,0.01-0.28,0.01c0,0,0,0,0.01,0h1.01C29.02,1.57,28.78,1.57,28.59,1.56z"/>
		<path class="st0" d="M43.16,17.23h-0.69c0.58,3.2,0.36,6.36-0.67,9.44c-1.69,5.04-4.9,8.85-9.59,11.35
			c-3.73,1.98-7.71,2.66-11.9,2.08c-2.6-0.36-5.01-1.22-7.28-2.52c-0.38-0.22-0.59-0.49-0.61-0.92c-0.03-0.64-0.07-1.27-0.11-1.91
			c-0.05,0.21-0.05,0.51-0.05,0.98c0,0.71,0,1.07,0,1.42v0.71c3.13,1.96,6.81,3.11,10.78,3.12c11.43,0,20.48-9.36,20.42-20.53
			C43.45,19.35,43.34,18.28,43.16,17.23z"/>
		<path class="st1" d="M12.25,35.72c0-0.46,0.01-0.76,0.05-0.98c-0.03-0.55-0.06-1.1-0.07-1.65c-0.01-0.61,0.16-1.15,0.86-1.38
			c0.43-0.14,0.52-0.51,0.24-0.88c-0.28-0.36-0.61-0.69-0.97-0.97c-0.56-0.44-1.14-0.87-1.76-1.22C9.24,27.9,8.39,26.73,7.7,25.4
			c-0.4-0.78-0.83-1.54-1.15-2.35c-0.34-0.86-1.04-1.22-1.81-1.54c-0.33-0.14-1.37-0.02-2.1-0.01c0.33,6.88,4.08,12.9,9.61,16.36
			v-0.71C12.25,36.79,12.25,36.43,12.25,35.72z"/>
		<path class="st0" d="M3.32,20.14c-0.01,0.36-0.04,0.71-0.03,1.08c0.19-0.12,0.32-0.21,0.39-0.25c0.01,0.01,0.02,0.01,0.03,0.02
			C3.7,20.45,3.63,20.23,3.32,20.14z"/>
		<path class="st0" d="M27.9,1.57h0.41c0,0,0,0-0.01,0C28.19,1.57,28.06,1.57,27.9,1.57z"/>
		<path class="st0" d="M42.13,17.23h0.34c-0.03-0.14-0.04-0.28-0.07-0.42c-0.03-0.13-0.12-0.32-0.23-0.36
			c-0.53-0.22-1.06-0.43-1.6-0.64c-0.43,0-0.85,0-1.28,0c0.43,0,0.85,0,1.28,0c-0.37-0.14-0.73-0.28-1.1-0.4
			c-0.36-0.12-0.78-0.07-1.17-0.1c-0.03,0.06-0.05,0.12-0.08,0.18c0.38,0.46,0.77,0.91,1.13,1.39c0.3,0.42,0.69,0.84,0.81,1.32
			c0.32,1.28-0.52,2.85-1.79,3.48c-0.08-0.2-0.17-0.39-0.25-0.59c-0.18-0.46-0.3-0.94-0.53-1.37c-0.78-1.49-1.63-2.94-2.4-4.44
			c-0.57-1.11-1.44-1.7-2.65-1.95c-0.7-0.14-1.4-0.4-2.05-0.71c-0.71-0.34-1.36-0.82-2.03-1.23c-0.3-0.18-0.62-0.34-1.01-0.56
			c0.18,0.98,0.97,1.28,1.52,1.78c-0.36,0.45-0.57,0.52-1.12,0.17c-0.93-0.59-1.76-0.4-2.62,0.15c-0.56,0.36-1.16,0.65-1.77,0.91
			c-0.34,0.14-0.78,0.26-1.05-0.12c-0.27-0.38,0.02-0.72,0.27-0.96c0.69-0.66,0.95-1.46,0.95-2.4c0-0.55,0.28-0.97,0.73-1.27
			c0.35-0.24,0.73-0.46,1.08-0.7c0.77-0.52,1.02-1.21,0.8-2.11c-0.05-0.18-0.1-0.37-0.15-0.55c-0.15-0.59-0.05-0.94,0.46-1.27
			c0.29-0.19,0.62-0.34,0.95-0.42c0.24-0.06,0.51,0.04,0.76,0.06c-0.03,0.22-0.06,0.44-0.09,0.66c0,0.03,0.01,0.06,0.02,0.09
			c0.53,0.06,0.78-0.17,0.73-0.74c-0.08-0.79-0.21-1.57-0.34-2.35c-0.01-0.07-0.12-0.14-0.23-0.19H27.9c0.15,0,0.28,0,0.41,0
			c-0.04-0.02-0.08-0.04-0.12-0.05c-0.84-0.18-1.67-0.37-2.52-0.5c-3.13-0.46-6.18-0.11-9.15,0.93c0,0.26,0,0.57,0,1.05
			c0-0.47,0-0.78,0-1.05C16.39,2,16.26,2.03,16.13,2.08c-0.1,0.04-0.27,0.12-0.26,0.16c0.04,0.43-0.34,0.49-0.57,0.68
			c-0.11,0.09-0.25,0.19-0.27,0.31C14.92,3.7,14.58,3.88,14.16,4c-0.57,0.17-1.17,0.33-1.69,0.62c-0.31,0.17-0.57,0.55-0.7,0.89
			c-0.08,0.2,0.05,0.6,0.22,0.75c0.14,0.12,0.51,0.08,0.73,0c0.25-0.1,0.45-0.34,0.68-0.51c0.35-0.27,0.69-0.57,1.07-0.78
			c0.47-0.26,0.72-0.07,0.72,0.47c-0.01,1-1.27,2.58-2.3,2.77c-0.55,0.1-0.82,0.38-0.92,0.87c-0.1,0.47-0.41,0.71-0.84,0.81
			c-0.29,0.07-0.59,0.11-0.89,0.12c-1.03,0.04-1.9,0.41-2.66,1.11c-0.43,0.39-0.87,0.82-1.38,1.07c-0.33,0.17-0.68,0.51-0.94,0.78
			c0.32,0,0.68,0,1.32,0c-0.64,0-0.99,0-1.32,0c-0.31,0.32-1.85,4.77-1.92,7.18c0.3,0.09,0.37,0.31,0.39,0.85
			c0.39,0.2,0.7,0.38,1.03,0.52c0.77,0.32,1.47,0.68,1.81,1.54c0.32,0.81,0.75,1.57,1.15,2.35c0.68,1.33,1.54,2.51,2.89,3.25
			c0.62,0.34,1.2,0.78,1.76,1.22c0.36,0.28,0.7,0.61,0.97,0.97c0.29,0.37,0.19,0.75-0.24,0.88c-0.7,0.23-0.87,0.77-0.86,1.38
			c0.02,1.19,0.12,2.37,0.18,3.56c0.02,0.44,0.23,0.7,0.61,0.92c2.27,1.3,4.69,2.16,7.28,2.52c4.19,0.58,8.17-0.1,11.9-2.08
			c4.7-2.5,7.91-6.3,9.59-11.35c1.03-3.09,1.25-6.25,0.67-9.44H42.13z M16.62,6.87c-0.11,0.06-0.35,0.04-0.42-0.04
			c-0.08-0.09-0.09-0.33-0.02-0.43c0.57-0.76,0.97-1.68,1.91-2.12c0.58-0.27,0.83-1.3,0.48-1.82c-0.16-0.24-0.11-0.4,0.14-0.47
			c0.22-0.07,0.46-0.08,0.69-0.12c0,0.02,0.01,0.05,0.01,0.07c0.28-0.05,0.56-0.14,0.84-0.15c0.58-0.02,1.16-0.02,1.74,0.01
			c0.4,0.02,0.56,0.31,0.49,0.67c-0.04,0.26-0.15,0.52-0.28,0.74c-0.15,0.26-0.4,0.46-0.56,0.71c-0.31,0.49-0.72,0.67-1.3,0.81
			c-1.09,0.26-2.16,0.64-2.92,1.57C17.23,6.55,16.91,6.72,16.62,6.87z M39.65,23.38c-0.19,0.91-0.46,1.81-0.74,2.7
			c-1.48,4.6-4.24,8.35-7.74,11.59c-0.4,0.37-0.88,0.69-1.37,0.94c-0.63,0.33-1.07,0.16-1.23-0.52c-0.2-0.81-0.31-1.65-0.37-2.48
			c-0.06-0.87-0.01-1.75-0.01-2.62c0.07-1.62,0.25-3.24-0.18-4.84c-0.38-1.39-1.16-2.02-2.6-2.01c-0.83,0.01-1.65,0.07-2.48,0.09
			c-2.46,0.05-3.61-0.81-4.14-3.22c-0.13-0.6-0.18-1.31,0.02-1.87c1.12-3.14,2.89-5.8,6.01-7.29c0.55-0.26,1.22-0.3,1.84-0.35
			c0.2-0.02,0.52,0.19,0.63,0.38c0.55,0.97,1.41,1.44,2.47,1.58c0.74,0.1,1.49,0.12,2.23,0.17c1.21,0.09,2.08,0.7,2.66,1.75
			c0.28,0.52,0.56,1.03,0.83,1.55c0.77,1.5,2.05,2.44,3.49,3.19C39.6,22.46,39.8,22.66,39.65,23.38z"/>
		<path class="st1" d="M38.96,22.13c-1.44-0.75-2.72-1.7-3.49-3.19c-0.27-0.52-0.55-1.04-0.83-1.55c-0.58-1.05-1.44-1.67-2.66-1.75
			c-0.74-0.05-1.49-0.07-2.23-0.17c-1.05-0.14-1.91-0.61-2.47-1.58c-0.11-0.19-0.43-0.4-0.63-0.38c-0.62,0.05-1.29,0.09-1.84,0.35
			c-3.12,1.49-4.89,4.15-6.01,7.29c-0.2,0.56-0.15,1.27-0.02,1.87c0.53,2.41,1.68,3.27,4.14,3.22c0.83-0.02,1.65-0.08,2.48-0.09
			c1.45-0.01,2.23,0.62,2.6,2.01c0.43,1.6,0.25,3.22,0.18,4.84c0,0.87-0.05,1.75,0.01,2.62c0.06,0.83,0.17,1.67,0.37,2.48
			c0.17,0.68,0.6,0.85,1.23,0.52c0.49-0.25,0.96-0.57,1.37-0.94c3.51-3.24,6.26-6.99,7.74-11.59c0.29-0.89,0.55-1.78,0.74-2.7
			C39.8,22.66,39.6,22.46,38.96,22.13z"/>
		<path class="st1" d="M21.99,1.81c-0.58-0.03-1.16-0.03-1.74-0.01c-0.28,0.01-0.85,0.1-0.85,0.07c-0.23,0.04-0.47,0.05-0.69,0.12
			c-0.25,0.08-0.3,0.23-0.14,0.47c0.35,0.52,0.1,1.55-0.48,1.82c-0.94,0.44-1.33,1.36-1.91,2.12c-0.07,0.09-0.05,0.34,0.02,0.43
			c0.07,0.08,0.31,0.1,0.42,0.04c0.29-0.16,0.6-0.32,0.81-0.57c0.76-0.93,1.83-1.31,2.92-1.57c0.57-0.14,0.99-0.32,1.3-0.81
			c0.16-0.25,0.4-0.45,0.56-0.71c0.13-0.22,0.24-0.48,0.28-0.74C22.55,2.12,22.39,1.83,21.99,1.81z"/>
		<path class="st1" d="M28.59,1.56c0.73,0.02,0.73,0.02,0.67-0.41c-0.44-0.14-0.9-0.27-1.35-0.38C27.94,1.35,27.9,1.57,28.59,1.56z"
			/>
		<path class="st1" d="M43.09,16.76c-0.06-0.32-0.14-0.64-0.22-0.96c-0.25,0-0.5,0-0.74,0L43.09,16.76z"/>
		<path class="st0" d="M43.09,16.76l-0.96-0.96c-0.52,0-1.04,0-1.56,0c0.54,0.21,1.07,0.42,1.6,0.64c0.11,0.05,0.2,0.23,0.23,0.36
			c0.03,0.14,0.05,0.28,0.07,0.42h0.69c-0.02-0.13-0.03-0.26-0.05-0.39C43.11,16.81,43.1,16.79,43.09,16.76z"/>
		<path class="st1" d="M42.88,15.8c-1.66-6.84-6.8-12.46-13.61-14.65C29.19,1.44,29,1.53,28.59,1.56c0.19,0.01,0.42,0.02,0.73,0.02
			h-1.01c0.11,0.05,0.21,0.11,0.23,0.19c0.14,0.78,0.26,1.56,0.34,2.35c0.06,0.57-0.19,0.8-0.73,0.74
			c-0.01-0.03-0.02-0.06-0.02-0.09c0.03-0.22,0.06-0.44,0.09-0.66c-0.25-0.03-0.53-0.12-0.76-0.06c-0.33,0.08-0.66,0.23-0.95,0.42
			c-0.51,0.33-0.61,0.68-0.46,1.27c0.05,0.18,0.1,0.37,0.15,0.55c0.22,0.9-0.03,1.59-0.8,2.11c-0.35,0.24-0.73,0.46-1.08,0.7
			c-0.45,0.3-0.73,0.72-0.73,1.27c0,0.93-0.26,1.73-0.95,2.4c-0.25,0.24-0.54,0.58-0.27,0.96c0.27,0.38,0.71,0.27,1.05,0.12
			c0.61-0.26,1.21-0.55,1.77-0.91c0.86-0.55,1.69-0.73,2.62-0.15c0.55,0.35,0.76,0.27,1.12-0.17c-0.55-0.5-1.34-0.8-1.52-1.78
			c0.39,0.22,0.71,0.38,1.01,0.56c0.68,0.41,1.32,0.89,2.03,1.23c0.65,0.31,1.35,0.57,2.05,0.71c1.21,0.25,2.08,0.83,2.65,1.95
			c0.77,1.5,1.61,2.95,2.4,4.44c0.23,0.43,0.35,0.91,0.53,1.37c0.08,0.2,0.17,0.39,0.25,0.59c1.27-0.63,2.11-2.2,1.79-3.48
			c-0.12-0.48-0.5-0.9-0.81-1.32c-0.35-0.48-0.75-0.93-1.13-1.39c0.03-0.06,0.05-0.12,0.08-0.18c0.39,0.03,0.81-0.02,1.17,0.1
			c0.37,0.12,0.74,0.26,1.1,0.4c0.52,0,1.04,0,1.56,0C42.38,15.8,42.63,15.8,42.88,15.8z"/>
		<path class="st0" d="M3.72,20.07"/>
	</g>
</g>
<g id="Mouse_Pointer">
	<g>
		<path class="st2" d="M40.03,37.72c0.06,0.05,0.11,0.08,0.15,0.13c0.85,1.05,1.69,2.11,2.53,3.17c0.21,0.26,0.19,0.41-0.07,0.62
			c-0.62,0.5-1.25,1-1.87,1.5c-0.26,0.21-0.41,0.19-0.62-0.07c-0.84-1.06-1.69-2.11-2.53-3.17c-0.03-0.04-0.07-0.08-0.11-0.14
			c-0.04,0.06-0.08,0.11-0.11,0.16c-0.74,1.14-1.47,2.28-2.21,3.41c-0.05,0.08-0.11,0.16-0.18,0.2c-0.19,0.12-0.41,0.01-0.48-0.23
			c-0.16-0.56-0.31-1.12-0.47-1.69c-1.16-4.19-2.32-8.39-3.48-12.58c-0.01-0.04-0.02-0.09-0.04-0.13c-0.04-0.14,0-0.26,0.11-0.34
			c0.11-0.09,0.23-0.1,0.36-0.03c0.4,0.21,0.8,0.43,1.2,0.64c3.95,2.11,7.91,4.23,11.86,6.34c0.16,0.09,0.33,0.17,0.31,0.39
			c-0.02,0.22-0.2,0.28-0.37,0.34c-1.26,0.46-2.51,0.93-3.77,1.39C40.19,37.66,40.14,37.68,40.03,37.72z"/>
	</g>
</g>
</svg>
