<?xml version="1.0" encoding="utf-8"?>
<!-- Generator: Adobe Illustrator 27.4.1, SVG Export Plug-In . SVG Version: 6.00 Build 0)  -->
<svg version="1.1" id="Memo" xmlns="http://www.w3.org/2000/svg" xmlns:xlink="http://www.w3.org/1999/xlink" x="0px" y="0px"
	 width="47px" height="44px" viewBox="0 0 47 44" style="enable-background:new 0 0 47 44;" xml:space="preserve">
<style type="text/css">
	.st0{fill:#FFFFFF;}
	.st1{fill:none;stroke:#90C7C3;stroke-width:2;stroke-miterlimit:10;}
	.st2{fill:#90C7C3;stroke:#FFFFFF;stroke-miterlimit:10;}
</style>
<g id="Text_File_Lines">
	<polygon id="White_File_Content" class="st0" points="31.3,1 7,1 7,43 39.8,43 39.8,10.8 	"/>
	<line class="st1" x1="11.1" y1="28.2" x2="35.7" y2="28.2"/>
	<line class="st1" x1="11.1" y1="34.5" x2="35.7" y2="34.5"/>
	<path id="File_Outline" class="st1" d="M32.3,1h-24c-1,0-1.8,0.8-1.8,1.8v38.4c0,1,0.8,1.8,1.8,1.8h30.2c1,0,1.8-0.8,1.8-1.8V10.5
		L32.3,1z"/>
	<line class="st1" x1="11.1" y1="9.4" x2="31.5" y2="9.4"/>
	<line class="st1" x1="11.1" y1="15.7" x2="35.7" y2="15.7"/>
	<line class="st1" x1="11.1" y1="22" x2="35.7" y2="22"/>
</g>
<g id="Pencil">
	<path class="st2" d="M42.7,21.6c0.1,0.2,0,0.4-0.1,0.6c-0.3,0.8-0.6,1.5-0.9,2.3c-1.2,3-2.3,6-3.5,9c-0.1,0.3-0.2,0.6-0.3,0.8
		c-0.2,0.5-0.3,0.5-0.8,0.3c-1-0.4-2-0.8-3.1-1.2c-0.6-0.2-1.2-0.5-1.8-0.7c-0.5-0.2-0.6-0.4-0.4-0.9c1.5-4,3.1-7.9,4.6-11.9
		c0-0.1,0.1-0.2,0.1-0.3c0.2-0.4,0.4-0.5,0.7-0.3c0.7,0.3,1.4,0.5,2.1,0.8c1,0.4,2,0.8,2.9,1.1C42.5,21.4,42.6,21.5,42.7,21.6z"/>
	<path class="st2" d="M38.8,14.3c0.2,0,0.3,0,0.4,0.1c1.7,0.6,3.4,1.3,5,2c0.4,0.1,0.5,0.4,0.3,0.7c-0.5,1.2-1,2.5-1.5,3.8
		c-0.2,0.4-0.3,0.5-0.8,0.3c-0.9-0.3-1.7-0.7-2.6-1c-0.8-0.3-1.5-0.6-2.2-0.9c-0.1,0-0.2-0.1-0.2-0.1C37,19,37,18.9,37,18.6
		c0-0.1,0.1-0.3,0.1-0.4c0.5-1.2,0.9-2.4,1.4-3.5C38.6,14.6,38.7,14.5,38.8,14.3z"/>
	<path class="st2" d="M32.4,40.2c-0.2,0.1-0.2,0-0.3-0.2c0-0.3-0.1-0.6-0.1-1c-0.2-1.8-0.4-3.7-0.5-5.5c0-0.4,0-0.5,0.4-0.3
		c1.7,0.7,3.5,1.3,5.2,2c0.4,0.1,0.4,0.3,0.1,0.5c-1.3,1.2-2.5,2.3-3.8,3.5c-0.3,0.3-0.6,0.5-0.9,0.8C32.5,40.1,32.4,40.2,32.4,40.2
		z"/>
</g>
</svg>
