<?xml version="1.0" encoding="utf-8"?>
<!-- Generator: Adobe Illustrator 27.3.1, SVG Export Plug-In . SVG Version: 6.00 Build 0)  -->
<svg version="1.1" id="Trash_Can" xmlns="http://www.w3.org/2000/svg" xmlns:xlink="http://www.w3.org/1999/xlink" x="0px" y="0px"
	 width="47px" height="44px" viewBox="0 0 47 44" style="enable-background:new 0 0 47 44;" xml:space="preserve">
<style type="text/css">
	.st0{fill:#FFFFFF;}
	.st1{fill:#61DAFB;}
	.st2{fill:#ADADAD;}
</style>
<g>
	<polygon id="White_Can" class="st0" points="38.46,43.38 8.59,43.38 3.31,2.12 43.64,2.12 	"/>
	<polygon id="Trash_Can_Side_Right" class="st1" points="37.09,39.43 40.39,39.43 45.71,3.58 42.41,3.58 	"/>
	<polygon id="Trash_Can_Side_Left" class="st1" points="9.97,39.43 6.67,39.43 1.35,3.58 4.65,3.58 	"/>
	<g id="Trash_Bottom_Rim">
		<path id="Trash_Bottom_Right" class="st2" d="M23.41,43.87h14.63c1.29,0,2.34-1.05,2.34-2.34v-2.34H23.41
			c-1.29,0-2.34,1.05-2.34,2.34v0C21.07,42.82,22.12,43.87,23.41,43.87z"/>
		<path id="Trash_Bottom_Left" class="st2" d="M23.45,43.87H8.97c-1.29,0-2.34-1.05-2.34-2.34v-2.34h16.83
			c1.29,0,2.34,1.05,2.34,2.34v0C25.79,42.82,24.74,43.87,23.45,43.87z"/>
	</g>
	<g id="Recycle_Symbol">
		<path class="st1" d="M14.56,19.33c0.59,0,1.15,0,1.71,0c0.74,0,1.48,0,2.22,0c0.18,0,0.26,0.05,0.34,0.23
			c0.25,0.56,0.57,1.09,0.82,1.66c0.23,0.53,0.44,1.06,0.69,1.57c0.03,0.07,0.06,0.13-0.01,0.2c-0.08,0.07-0.14,0-0.2-0.04
			c-0.13-0.08-0.25-0.16-0.36-0.25c-0.17-0.15-0.31-0.17-0.42,0.06c-0.3,0.6-0.7,1.14-1.06,1.71c-0.14,0.21,0.03,0.19,0.16,0.19
			c0.7,0,1.4,0,2.1,0c0.51,0,1.02,0.01,1.52,0c0.19,0,0.29,0.04,0.28,0.26c-0.01,1.41-0.01,2.82,0,4.22c0,0.21-0.07,0.3-0.29,0.3
			c-1.03-0.01-2.06,0.04-3.08-0.02c-0.86-0.05-1.51-0.49-2-1.23c-0.46-0.7-0.83-1.45-1.3-2.14c-0.5-0.71-0.81-1.54-1.33-2.24
			c-0.29-0.39-0.34-0.79-0.31-1.25c0.01-0.16,0.08-0.29,0.16-0.43c0.4-0.65,0.78-1.31,1.17-1.97c0.1-0.16-0.03-0.21-0.13-0.3
			C15.02,19.71,14.71,19.65,14.56,19.33z"/>
		<path class="st1" d="M23.56,18.36c0.26-0.16,0.51-0.32,0.77-0.45c0.12-0.06,0.18-0.11,0.1-0.23c-0.36-0.55-0.52-1.19-0.86-1.75
			c-0.13-0.21-0.2-0.23-0.33-0.01c-0.54,0.89-1.09,1.77-1.59,2.68c-0.1,0.17-0.21,0.34-0.33,0.5c-0.07,0.09-0.17,0.06-0.26,0.01
			c-0.46-0.27-0.91-0.54-1.37-0.8c-0.56-0.31-1.08-0.69-1.67-0.96c-0.26-0.11-0.47-0.35-0.72-0.51c-0.12-0.07-0.04-0.22,0.02-0.31
			c0.28-0.49,0.54-1,0.86-1.47c0.17-0.25,0.3-0.53,0.44-0.8c0.42-0.77,1.04-1.28,1.89-1.49c0.22-0.05,0.46,0,0.69,0
			c1.73,0,3.45,0.01,5.18,0.01c0.49,0,0.84,0.17,1.08,0.65c0.32,0.64,0.73,1.23,1.09,1.85c0.08,0.14,0.12,0.19,0.28,0.07
			c0.18-0.13,0.41-0.22,0.61-0.33c0.05-0.02,0.1-0.06,0.14,0c0.02,0.03,0.02,0.09,0.01,0.12c-0.37,0.74-0.55,1.56-0.94,2.3
			c-0.13,0.24-0.29,0.48-0.33,0.77c-0.02,0.12-0.08,0.21-0.23,0.21c-1.49-0.01-2.99-0.01-4.48-0.02
			C23.61,18.43,23.6,18.41,23.56,18.36z"/>
		<path class="st1" d="M26.47,30.48c-0.14-0.04-0.23-0.08-0.28-0.17c-0.44-0.89-0.98-1.72-1.44-2.6c-0.01-0.02-0.02-0.04-0.03-0.05
			c-0.46-0.43-0.31-0.81,0-1.28c0.55-0.83,1.02-1.72,1.53-2.59c0.04-0.06,0.04-0.19,0.16-0.17c0.12,0.03,0.06,0.14,0.07,0.22
			c0.03,0.27-0.12,0.62,0.07,0.79c0.17,0.15,0.51,0.04,0.77,0.04c0.51,0.01,1.02,0,1.52,0.01c0.25,0.01,0.24-0.11,0.13-0.26
			c-0.26-0.37-0.54-0.72-0.74-1.13c-0.32-0.64-0.73-1.23-1.13-1.82c-0.11-0.16,0.01-0.22,0.09-0.27c1.19-0.77,2.4-1.53,3.59-2.3
			c0.17-0.11,0.25-0.1,0.37,0.09c0.39,0.64,0.78,1.29,1.14,1.95c0.05,0.08,0.09,0.17,0.16,0.23c0.19,0.18,0.25,0.41,0.35,0.65
			c0.33,0.82,0.12,1.56-0.24,2.3c-0.35,0.72-0.69,1.44-1.05,2.15c-0.42,0.82-0.79,1.67-1.25,2.47c-0.25,0.44-0.64,0.61-1.12,0.65
			c-0.78,0.06-1.56,0.04-2.35,0.04c-0.24,0-0.35,0.07-0.34,0.33C26.49,29.99,26.47,30.22,26.47,30.48z"/>
	</g>
	<g id="Trash_Top_Rim">
		<path id="Trash_Top_Right" class="st2" d="M21.42,3.58h24.65c0.21,0,0.4-0.21,0.47-0.52l0.43-1.88c0.12-0.51-0.13-1.05-0.47-1.05
			H21.42c-0.28,0-0.5,0.35-0.5,0.78V2.8C20.91,3.23,21.14,3.58,21.42,3.58z"/>
		<path id="Trash_Top_Left" class="st2" d="M25.58,3.58H0.93c-0.21,0-0.4-0.21-0.47-0.52L0.03,1.18C-0.09,0.67,0.16,0.13,0.5,0.13
			h25.08c0.28,0,0.5,0.35,0.5,0.78V2.8C26.09,3.23,25.86,3.58,25.58,3.58z"/>
	</g>
</g>
</svg>
