<?xml version="1.0" encoding="utf-8"?>
<!-- Generator: Adobe Illustrator 27.4.0, SVG Export Plug-In . SVG Version: 6.00 Build 0)  -->
<svg version="1.1" id="Warning" xmlns="http://www.w3.org/2000/svg" xmlns:xlink="http://www.w3.org/1999/xlink" x="0px" y="0px"
	 width="47px" height="44px" viewBox="0 0 47 44" style="enable-background:new 0 0 47 44;" xml:space="preserve">
<style type="text/css">
	.st0{fill:none;stroke:#282C34;stroke-width:3;stroke-miterlimit:10;}
	.st1{fill:#282C34;}
</style>
<g>
	<path id="Triangle" class="st0" d="M17.87,5.97L3.11,31.53c-2.5,4.33,0.63,9.75,5.63,9.75h29.52c5.01,0,8.13-5.42,5.63-9.75
		L29.13,5.97C26.63,1.63,20.37,1.63,17.87,5.97z"/>
	<circle class="st1" cx="23.5" cy="34.53" r="2.4"/>
	<ellipse class="st1" cx="23.5" cy="13.87" rx="2.92" ry="2.64"/>
	<path class="st1" d="M20.58,14.07c0-0.19,0.15-0.34,0.34-0.34h5.16c0.13,0,0.24,0.07,0.3,0.17c0.04,0.07,0.05,0.15,0.04,0.23
		L23.6,30.3C23.6,30.49,20.58,14.07,20.58,14.07z"/>
</g>
</svg>
